<svg width="133" height="119" viewBox="0 0 133 119" fill="none" xmlns="http://www.w3.org/2000/svg">
<path d="M1.372 105.004H2.548V110.492C2.548 110.8 2.54333 111.145 2.534 111.528C2.52467 111.911 2.51067 112.261 2.492 112.578C2.48267 112.895 2.46867 113.129 2.45 113.278H2.506L8.008 105.004H9.408V115H8.232V109.568C8.232 109.223 8.23667 108.854 8.246 108.462C8.26467 108.07 8.28333 107.711 8.302 107.384C8.32067 107.057 8.33467 106.824 8.344 106.684H8.288L2.772 115H1.372V105.004ZM19.7481 115H18.4881V110.338H13.3641V115H12.1041V105.004H13.3641V109.232H18.4881V105.004H19.7481V115ZM25.337 105.004C26.5877 105.004 27.5304 105.191 28.165 105.564C28.809 105.928 29.131 106.567 29.131 107.482C29.131 108.07 28.9677 108.56 28.641 108.952C28.3144 109.335 27.843 109.582 27.227 109.694V109.764C27.647 109.829 28.025 109.951 28.361 110.128C28.7064 110.305 28.977 110.557 29.173 110.884C29.369 111.211 29.467 111.635 29.467 112.158C29.467 113.063 29.1544 113.763 28.529 114.258C27.913 114.753 27.0684 115 25.995 115H22.481V105.004H25.337ZM25.589 109.26C26.4477 109.26 27.0357 109.125 27.353 108.854C27.6704 108.574 27.829 108.163 27.829 107.622C27.829 107.071 27.633 106.679 27.241 106.446C26.8584 106.203 26.2424 106.082 25.393 106.082H23.741V109.26H25.589ZM23.741 110.31V113.936H25.757C26.6437 113.936 27.2597 113.763 27.605 113.418C27.9504 113.073 28.123 112.62 28.123 112.06C28.123 111.537 27.941 111.117 27.577 110.8C27.2224 110.473 26.583 110.31 25.659 110.31H23.741ZM37.1725 115H31.5865V105.004H37.1725V106.11H32.8465V109.232H36.9205V110.324H32.8465V113.894H37.1725V115ZM42.2218 105.004C43.4725 105.004 44.4151 105.191 45.0498 105.564C45.6938 105.928 46.0158 106.567 46.0158 107.482C46.0158 108.07 45.8525 108.56 45.5258 108.952C45.1991 109.335 44.7278 109.582 44.1118 109.694V109.764C44.5318 109.829 44.9098 109.951 45.2458 110.128C45.5911 110.305 45.8618 110.557 46.0578 110.884C46.2538 111.211 46.3518 111.635 46.3518 112.158C46.3518 113.063 46.0391 113.763 45.4138 114.258C44.7978 114.753 43.9531 115 42.8798 115H39.3658V105.004H42.2218ZM42.4738 109.26C43.3325 109.26 43.9205 109.125 44.2378 108.854C44.5551 108.574 44.7138 108.163 44.7138 107.622C44.7138 107.071 44.5178 106.679 44.1258 106.446C43.7431 106.203 43.1271 106.082 42.2778 106.082H40.6258V109.26H42.4738ZM40.6258 110.31V113.936H42.6418C43.5285 113.936 44.1445 113.763 44.4898 113.418C44.8351 113.073 45.0078 112.62 45.0078 112.06C45.0078 111.537 44.8258 111.117 44.4618 110.8C44.1071 110.473 43.4678 110.31 42.5438 110.31H40.6258ZM56.1153 115H54.8553V110.338H49.7313V115H48.4713V105.004H49.7313V109.232H54.8553V105.004H56.1153V115ZM62.0122 115H60.7522V106.11H57.6302V105.004H65.1202V106.11H62.0122V115ZM71.9152 115L70.7112 111.906H66.7492L65.5592 115H64.2852L68.1912 104.962H69.3252L73.2172 115H71.9152ZM69.2132 107.762C69.1852 107.687 69.1385 107.552 69.0732 107.356C69.0078 107.16 68.9425 106.959 68.8772 106.754C68.8212 106.539 68.7745 106.376 68.7372 106.264C68.6718 106.553 68.5972 106.838 68.5132 107.118C68.4292 107.389 68.3592 107.603 68.3032 107.762L67.1692 110.786H70.3332L69.2132 107.762ZM77.2306 105.004C78.5372 105.004 79.4892 105.261 80.0866 105.774C80.6839 106.287 80.9826 107.011 80.9826 107.944C80.9826 108.495 80.8566 109.013 80.6046 109.498C80.3619 109.974 79.9466 110.361 79.3586 110.66C78.7799 110.959 77.9912 111.108 76.9926 111.108H75.8446V115H74.5846V105.004H77.2306ZM77.1186 106.082H75.8446V110.03H76.8526C77.8046 110.03 78.5139 109.876 78.9806 109.568C79.4472 109.26 79.6806 108.737 79.6806 108C79.6806 107.356 79.4752 106.875 79.0646 106.558C78.6539 106.241 78.0052 106.082 77.1186 106.082ZM83.0611 115V105.004H84.3211V109.232H86.1971C87.1305 109.232 87.8725 109.358 88.4231 109.61C88.9738 109.862 89.3705 110.203 89.6131 110.632C89.8558 111.061 89.9771 111.542 89.9771 112.074C89.9771 112.951 89.6785 113.661 89.0811 114.202C88.4838 114.734 87.5738 115 86.3511 115H83.0611ZM86.2251 113.922C87.8585 113.922 88.6751 113.306 88.6751 112.074C88.6751 111.43 88.4511 110.977 88.0031 110.716C87.5551 110.455 86.9018 110.324 86.0431 110.324H84.3211V113.922H86.2251ZM94.5592 115V105.004H102.063V115H100.817V106.11H95.8192V115H94.5592ZM108.985 112.158C108.687 112.821 108.383 113.376 108.075 113.824C107.777 114.263 107.422 114.594 107.011 114.818C106.601 115.033 106.078 115.14 105.443 115.14C105.182 115.14 104.935 115.121 104.701 115.084C104.477 115.047 104.272 114.995 104.085 114.93V113.684C104.272 113.768 104.473 113.838 104.687 113.894C104.902 113.941 105.126 113.964 105.359 113.964C105.882 113.964 106.293 113.852 106.591 113.628C106.899 113.404 107.184 113.007 107.445 112.438L103.595 105.004H104.981L107.767 110.506C107.814 110.599 107.87 110.721 107.935 110.87C108.001 111.01 108.057 111.145 108.103 111.276H108.159C108.197 111.173 108.243 111.052 108.299 110.912C108.355 110.763 108.402 110.641 108.439 110.548L110.847 105.004H112.177L108.985 112.158ZM117.683 105.97C116.61 105.97 115.765 106.329 115.149 107.048C114.533 107.767 114.225 108.751 114.225 110.002C114.225 111.243 114.51 112.228 115.079 112.956C115.658 113.675 116.521 114.034 117.669 114.034C118.108 114.034 118.523 113.997 118.915 113.922C119.307 113.847 119.69 113.754 120.063 113.642V114.734C119.69 114.874 119.302 114.977 118.901 115.042C118.509 115.107 118.038 115.14 117.487 115.14C116.47 115.14 115.62 114.93 114.939 114.51C114.258 114.09 113.744 113.493 113.399 112.718C113.063 111.943 112.895 111.033 112.895 109.988C112.895 108.98 113.077 108.093 113.441 107.328C113.814 106.553 114.36 105.951 115.079 105.522C115.798 105.083 116.67 104.864 117.697 104.864C118.752 104.864 119.671 105.06 120.455 105.452L119.951 106.516C119.643 106.376 119.298 106.25 118.915 106.138C118.542 106.026 118.131 105.97 117.683 105.97ZM125.409 115H124.149V106.11H121.027V105.004H128.517V106.11H125.409V115Z" fill="#20232D"/>
<rect x="22.4312" width="20.4808" height="20.4808" rx="3" fill="#20232D"/>
<rect x="56.5654" width="20.4808" height="20.4808" rx="3" fill="#20232D"/>
<rect x="90.7002" width="20.4808" height="20.4808" rx="3" fill="#20232D"/>
<rect x="90.7002" y="34.1348" width="20.4808" height="20.4808" rx="3" fill="#20232D"/>
<rect x="56.5654" y="34.1348" width="20.4808" height="20.4808" rx="3" fill="#20232D"/>
<rect x="56.5654" y="68.2695" width="20.4808" height="20.4808" rx="3" fill="#20232D"/>
<rect x="90.7002" y="68.2695" width="20.4808" height="20.4808" rx="3" fill="#20232D"/>
<rect x="22.4312" y="68.2695" width="20.4808" height="20.4808" rx="3" fill="#20232D"/>
<rect x="22.4312" y="34.1348" width="20.4808" height="20.4808" rx="3" fill="#20232D"/>
</svg>
